<?xml version="1.0" standalone="no"?>
<!DOCTYPE svg PUBLIC "-//W3C//DTD SVG 20010904//EN"
 "http://www.w3.org/TR/2001/REC-SVG-20010904/DTD/svg10.dtd">
<svg version="1.0" xmlns="http://www.w3.org/2000/svg"
 width="882.000000pt" height="1280.000000pt" viewBox="0 0 882.000000 1280.000000"
 preserveAspectRatio="xMidYMid meet">
<metadata>
Created by potrace 1.15, written by Peter Selinger 2001-2017
</metadata>
<g transform="translate(0.000000,1280.000000) scale(0.100000,-0.100000)"
fill="#000000" stroke="none">
<path d="M5766 12789 c-153 -22 -262 -67 -260 -107 1 -26 -5 -28 -20 -7 -10
13 -19 13 -81 -4 -112 -30 -204 -44 -290 -45 -80 0 -80 0 -217 71 l-136 71
-69 -19 c-37 -11 -81 -19 -98 -18 -17 1 -64 -15 -108 -36 -81 -39 -91 -40
-163 -9 -6 3 -17 -9 -24 -25 -9 -22 -36 -43 -105 -82 -51 -29 -160 -100 -242
-157 -195 -137 -274 -188 -355 -229 -38 -19 -68 -40 -68 -49 0 -31 -41 -130
-68 -164 -16 -19 -31 -52 -35 -72 -9 -59 -32 -82 -138 -139 -55 -30 -104 -58
-109 -64 -5 -6 8 -44 31 -90 50 -103 50 -130 -1 -187 -41 -47 -64 -93 -55
-108 3 -5 -6 -25 -20 -46 -14 -20 -25 -45 -25 -54 0 -13 -10 -19 -35 -22 -41
-5 -42 -2 -12 23 21 18 22 18 1 19 -11 0 -67 -9 -125 -19 -251 -46 -499 -71
-713 -71 -102 0 -190 -6 -239 -15 -43 -8 -132 -15 -197 -15 -117 0 -118 0
-124 -25 -4 -14 -10 -25 -15 -25 -19 0 -51 -68 -51 -108 0 -34 -6 -45 -40 -76
l-40 -36 38 0 c36 0 40 3 54 38 9 20 22 56 29 80 7 25 26 55 46 73 38 33 36
32 81 19 24 -6 50 -5 90 5 57 15 459 68 602 80 41 3 156 10 255 15 99 4 189
11 201 15 13 4 27 1 36 -9 12 -11 55 -18 168 -25 84 -6 155 -13 159 -16 3 -4
-6 -17 -21 -30 -35 -30 -35 -35 1 -35 21 0 39 12 68 43 l40 43 109 -19 c125
-21 321 -19 412 6 28 8 52 11 52 7 0 -12 -66 -67 -100 -85 -32 -17 -33 -19
-20 -50 8 -18 10 -17 21 12 11 26 17 31 35 27 16 -4 36 8 79 46 33 28 70 53
83 57 13 3 68 3 121 0 104 -5 187 -30 227 -68 24 -22 24 -22 24 -2 0 12 -14
33 -31 47 -29 25 -30 26 -7 26 13 0 134 7 271 15 222 14 252 14 299 0 28 -8
63 -15 76 -15 13 0 41 -14 62 -30 52 -41 115 -63 139 -48 14 8 25 7 49 -4 19
-10 34 -12 40 -6 5 5 49 -4 113 -26 57 -19 140 -44 184 -56 377 -104 720 -272
1320 -648 50 -31 204 -222 217 -269 16 -57 3 -85 -52 -116 -41 -23 -53 -26
-70 -17 -30 16 -24 56 8 52 25 -4 29 10 8 27 -10 9 -16 8 -26 -5 -12 -14 -14
-14 -22 1 -8 13 -15 11 -49 -15 l-39 -32 30 68 c17 37 28 75 25 84 -3 9 -30
34 -60 54 -30 21 -57 46 -60 57 -4 10 -11 19 -17 19 -6 0 -6 -6 2 -15 11 -13
7 -15 -28 -15 -36 0 -45 5 -78 44 -30 37 -40 43 -54 34 -18 -12 -242 86 -882
383 -188 87 -317 142 -354 148 -32 6 -137 11 -235 11 -226 0 -358 13 -489 49
-230 64 -270 62 -470 -19 -132 -54 -196 -71 -271 -73 -47 -1 -79 10 -243 82
l-188 82 -171 -2 c-170 -2 -170 -2 -179 21 -8 21 -10 22 -21 7 -6 -10 -38 -23
-70 -29 -63 -13 -68 -12 -222 42 -205 72 -475 107 -695 90 -151 -12 -398 -58
-423 -79 -10 -8 -32 -40 -48 -72 -42 -79 -92 -124 -159 -143 -31 -8 -66 -13
-78 -9 -21 5 -22 2 -22 -50 l0 -56 98 -88 c136 -123 178 -151 332 -221 157
-70 196 -82 268 -82 29 0 65 -6 80 -14 39 -20 152 -213 152 -259 0 -48 -26
-118 -58 -157 l-28 -33 -94 55 c-82 46 -138 73 -237 114 -13 5 -54 47 -92 94
-65 80 -68 85 -54 107 8 12 12 27 8 34 -6 8 -9 8 -15 -1 -4 -7 -34 18 -84 72
l-77 83 60 -105 61 -104 -22 -23 -22 -23 31 6 c25 5 38 -1 91 -45 34 -29 62
-54 62 -57 0 -3 -16 -26 -36 -50 -41 -50 -33 -60 11 -14 33 34 43 37 52 14 4
-11 -6 -27 -33 -50 -52 -44 -28 -43 31 1 43 33 49 35 83 25 20 -5 55 -22 78
-38 23 -15 60 -39 83 -55 60 -40 139 -69 191 -70 37 -1 57 7 103 37 67 45 73
51 45 53 -12 1 -28 9 -36 17 -10 10 -21 12 -37 6 -27 -10 -29 -6 -47 128 -12
91 -13 93 -71 165 -33 39 -77 92 -99 116 -38 41 -128 214 -128 245 0 8 12 29
26 46 18 21 24 34 17 41 -8 8 -20 -1 -39 -25 -16 -20 -32 -36 -36 -36 -13 0
-9 115 5 132 6 9 30 18 54 20 l41 3 116 -151 c130 -171 212 -251 291 -286 l55
-23 0 -75 0 -74 45 -46 c34 -34 47 -57 51 -86 12 -81 89 -213 214 -369 79 -97
136 -179 163 -233 l41 -84 1 -136 c1 -162 15 -212 121 -431 50 -105 64 -144
64 -180 l0 -47 -77 -26 c-378 -128 -531 -183 -548 -194 -29 -21 -71 -17 -101
9 l-27 24 19 39 c13 28 40 53 92 88 40 27 71 51 68 53 -2 2 -31 -3 -64 -11
-33 -9 -97 -16 -142 -16 l-81 0 -113 65 c-62 35 -130 68 -152 73 -22 5 -103
47 -180 94 -216 132 -184 122 -333 103 l-129 -17 -233 125 c-234 124 -337 182
-374 211 -18 14 -18 15 -2 16 10 0 43 9 74 20 32 11 69 21 83 21 24 1 23 2 -5
9 -62 16 -128 11 -167 -13 l-38 -22 83 -81 c117 -116 224 -193 367 -264 69
-34 126 -63 128 -64 5 -6 -119 -77 -159 -91 -23 -8 -57 -15 -76 -15 -23 0 -46
-10 -71 -30 -58 -46 -145 -81 -249 -99 l-97 -17 100 -22 c128 -29 208 -42 264
-42 57 -1 38 -13 -45 -30 -33 -7 -67 -16 -75 -21 -19 -11 130 -11 188 0 51 10
47 2 -32 -58 -62 -48 -97 -52 -178 -21 -28 11 -53 18 -54 17 -2 -2 81 -58 115
-77 14 -8 -10 -44 -98 -144 l-34 -39 6 -97 6 -97 -30 -29 c-45 -42 -61 -81
-64 -146 -2 -44 -9 -67 -30 -97 -35 -52 -28 -73 12 -33 24 24 33 28 43 19 8
-8 14 -8 16 -2 3 6 26 51 53 100 43 81 51 90 80 93 39 4 40 -7 2 -84 -50 -101
-73 -182 -69 -244 2 -30 8 -62 12 -71 5 -11 -12 -41 -54 -98 -34 -46 -59 -86
-55 -89 3 -3 21 -6 39 -6 26 0 50 13 106 59 l73 58 -6 -42 c-4 -33 -20 -58
-79 -127 -172 -201 -303 -373 -381 -500 -39 -62 -207 -424 -368 -792 -88 -201
-89 -206 -128 -410 -109 -567 -145 -872 -145 -1232 -1 -343 23 -552 89 -757
40 -127 119 -403 130 -453 15 -73 217 -501 342 -723 166 -299 372 -592 559
-797 32 -36 93 -108 135 -160 91 -112 231 -250 349 -342 141 -109 704 -466
835 -529 382 -183 753 -295 1255 -378 247 -41 645 -65 950 -58 559 14 871 85
1520 345 246 98 286 119 555 292 386 249 482 325 771 614 395 396 571 621 728
933 49 98 305 647 356 762 259 591 311 1518 134 2365 -43 207 -63 277 -119
411 -84 206 -102 272 -115 434 -17 213 -58 352 -139 471 l-40 58 54 7 c47 5
54 10 66 37 7 18 29 52 48 77 31 40 35 53 35 103 1 40 -4 62 -17 76 -12 13
-19 38 -20 76 -2 50 -4 56 -24 56 -40 0 -33 18 12 31 50 15 54 31 10 39 -26 5
-27 6 -10 20 10 8 23 15 29 16 6 0 16 2 23 2 7 1 20 27 30 59 14 44 26 63 56
84 22 16 48 31 58 34 26 9 25 16 -21 86 -22 34 -40 67 -40 73 0 6 -9 22 -20
36 -24 30 -25 48 -4 71 14 16 14 20 -1 49 -16 31 -16 33 7 57 l23 24 -25 20
c-14 10 -42 24 -63 31 -26 8 -36 16 -33 27 28 101 12 158 -84 304 -37 57 -78
123 -90 147 -12 24 -53 81 -91 128 -107 132 -169 226 -163 248 9 37 -91 180
-209 298 -96 97 -148 164 -211 276 -116 204 -264 370 -330 370 -13 0 -50 29
-95 75 -40 41 -96 85 -123 99 l-49 24 71 37 70 37 0 122 0 122 -196 179 c-108
99 -213 188 -234 198 -21 10 -55 33 -77 51 -21 19 -81 59 -133 91 -52 31 -122
77 -156 101 -57 40 -62 42 -83 28 -30 -21 -54 -11 -121 51 -44 40 -68 55 -101
60 -55 9 -93 29 -193 99 -44 31 -88 56 -97 56 -19 0 -30 28 -49 130 -17 90
-15 99 43 152 28 27 64 56 79 64 38 20 55 56 67 148 12 83 31 134 60 160 11
10 66 25 137 37 134 22 271 57 280 70 3 5 21 9 40 9 28 0 46 11 95 56 34 31
80 65 104 75 50 22 148 93 189 138 l30 31 116 0 117 0 39 38 c49 46 133 91
239 127 44 15 112 44 150 64 74 38 189 140 167 148 -15 6 -314 -24 -362 -37
-19 -4 -64 -21 -100 -36 -46 -19 -88 -29 -145 -32 -44 -2 -87 -10 -95 -17 -30
-24 -52 -24 -118 2 -67 27 -110 53 -159 99 -14 13 -38 24 -53 24 -15 0 -33 7
-41 16 -35 43 -182 84 -294 83 l-50 -1 45 -9 c25 -5 70 -14 100 -20 121 -23
143 -35 183 -97 42 -65 45 -82 17 -89 -32 -8 -23 -19 26 -33 36 -10 49 -20 62
-46 13 -27 13 -38 3 -60 -10 -22 -9 -28 6 -40 22 -16 29 -17 52 -4 14 7 23 4
40 -13 l21 -23 -63 -46 c-34 -25 -74 -48 -89 -52 -14 -3 -46 -21 -70 -39 -66
-51 -129 -85 -169 -92 -37 -7 -37 -7 -44 33 -6 35 -11 42 -38 48 -18 4 -46 13
-64 22 l-31 15 28 23 c15 13 40 24 54 24 34 0 87 22 105 43 18 23 16 23 -176
-23 -92 -23 -177 -43 -188 -45 -48 -10 -102 -74 -176 -211 -74 -137 -106 -174
-152 -174 -17 0 -17 2 3 31 12 16 19 33 16 36 -4 4 -13 -3 -22 -15 -19 -27
-50 -28 -64 -2 -13 24 -39 26 -66 5 -25 -19 -34 -19 -34 0 0 11 -12 15 -47 16
-56 1 -93 12 -75 23 14 8 16 46 3 46 -5 0 -14 -7 -21 -15 -11 -13 -17 -11 -50
15 l-37 29 1 -36 c1 -30 -4 -39 -24 -50 -20 -10 -26 -22 -32 -65 -4 -30 -3
-54 3 -56 5 -2 9 -8 9 -13 0 -14 -37 -11 -69 5 -32 17 -61 7 -36 -14 8 -7 15
-21 15 -31 0 -15 -7 -19 -31 -19 -37 0 -63 13 -111 56 -80 71 -196 113 -398
143 -74 11 -186 28 -249 37 l-115 17 56 52 c31 29 96 74 145 100 106 58 99 51
83 70 -10 12 -15 13 -24 2 -6 -7 -29 -19 -51 -26 -43 -15 -116 -64 -154 -105
l-23 -25 -67 57 c-36 31 -87 71 -113 87 -46 29 -62 55 -35 55 7 0 23 7 35 16
16 11 20 20 13 31 -10 18 29 58 64 64 14 3 21 14 23 36 2 19 12 39 25 48 18
13 23 13 38 -1 15 -14 19 -13 38 12 11 15 21 35 21 45 0 11 5 18 12 16 6 -1
14 12 18 29 11 48 20 58 35 38 12 -17 13 -16 19 4 8 23 80 67 96 57 4 -3 18 8
29 24 l21 29 -21 27 c-20 25 -26 26 -85 23 -35 -2 -64 0 -64 4 0 9 59 28 87
28 13 0 47 12 76 26 62 32 165 43 222 24 21 -7 57 -30 79 -50 49 -45 114 -65
267 -81 56 -5 130 -16 163 -24 72 -16 164 -25 299 -30 54 -2 101 -6 104 -9 3
-3 0 -13 -8 -22 -11 -14 -11 -18 6 -30 28 -21 58 -18 51 4 -4 10 1 38 9 62 8
24 16 82 17 129 1 47 3 90 6 94 2 5 16 -2 31 -16 14 -13 50 -41 80 -61 52 -35
55 -36 150 -36 l96 0 -53 25 c-30 14 -62 25 -73 25 -10 0 -55 25 -99 55 -85
58 -90 59 -194 44z m-1346 -179 c-17 -17 -24 -18 -45 -8 -38 17 -30 28 20 28
45 0 45 0 25 -20z m-90 -40 c0 -5 -5 -10 -11 -10 -5 0 -7 5 -4 10 3 6 8 10 11
10 2 0 4 -4 4 -10z m175 0 c3 -5 1 -10 -4 -10 -6 0 -11 5 -11 10 0 6 2 10 4
10 3 0 8 -4 11 -10z m-260 -30 c-28 -12 -47 -12 -40 0 3 6 18 10 33 9 24 0 25
-1 7 -9z m-205 -105 c-7 -9 -15 -13 -17 -11 -7 7 7 26 19 26 6 0 6 -6 -2 -15z
m-90 -73 c0 -5 -20 -13 -45 -19 -49 -11 -61 -1 -17 15 34 13 62 14 62 4z m140
-112 c0 -5 -7 -10 -15 -10 -8 0 -15 5 -15 10 0 6 7 10 15 10 8 0 15 -4 15 -10z
m-103 -143 c17 -12 54 -50 82 -82 28 -33 75 -76 106 -95 30 -19 55 -40 55 -46
0 -13 -27 -51 -32 -44 -3 3 -26 34 -53 70 -76 103 -85 111 -106 99 -26 -14
-24 -23 17 -69 63 -69 8 -48 -85 32 -35 30 -52 38 -83 38 -39 0 -40 1 -33 28
10 42 53 92 79 92 12 0 36 -10 53 -23z m-407 9 c0 -3 -4 -8 -10 -11 -5 -3 -10
-1 -10 4 0 6 5 11 10 11 6 0 10 -2 10 -4z m216 -103 c-19 -34 -55 -77 -60 -72
-3 2 12 29 32 60 37 56 56 64 28 12z m2481 1 c-3 -3 -12 -4 -19 -1 -8 3 -5 6
6 6 11 1 17 -2 13 -5z m-2587 -26 c-14 -6 -36 -14 -49 -19 -19 -8 -22 -14 -16
-37 4 -15 11 -29 15 -32 5 -3 -2 -19 -16 -35 l-25 -30 5 31 c2 16 6 37 8 44 2
8 -7 19 -19 25 -13 5 -23 12 -23 16 0 16 39 38 75 42 67 6 71 6 45 -5z m640
-68 c0 -5 -5 -10 -11 -10 -5 0 -7 5 -4 10 3 6 8 10 11 10 2 0 4 -4 4 -10z
m-777 -62 c-6 -34 -22 -72 -28 -66 -1 1 2 24 8 51 13 53 30 65 20 15z m311
-67 c-7 -32 10 -41 79 -41 l37 0 0 -103 0 -104 -57 -16 c-32 -8 -95 -21 -140
-28 -46 -8 -83 -16 -83 -20 0 -9 232 -4 255 5 16 7 18 7 8 -5 -7 -7 -13 -26
-13 -42 0 -25 -2 -28 -16 -17 -12 11 -18 11 -30 -2 -14 -14 -13 -17 15 -34 38
-22 36 -34 -10 -56 -36 -17 -209 -58 -245 -58 -11 0 -37 17 -56 38 l-35 38 29
90 c17 49 35 95 40 102 7 8 7 16 0 25 -7 8 -5 40 9 105 29 143 36 150 151 151
l68 1 -6 -29z m255 -88 c-8 -124 -12 -142 -51 -240 -15 -39 -28 -88 -28 -109
0 -23 -10 -53 -27 -80 -26 -40 -31 -44 -70 -44 -23 0 -50 -2 -60 -5 -17 -6
-17 -5 1 7 10 7 39 30 65 50 47 37 48 37 65 133 28 160 93 395 109 395 1 0 -1
-48 -4 -107z m503 67 c132 -23 251 -59 401 -124 88 -38 140 -70 270 -168 193
-144 262 -208 329 -306 42 -63 48 -76 37 -90 -8 -9 -14 -18 -15 -20 -1 -2 -24
11 -51 27 -69 43 -121 63 -128 51 -13 -20 -51 -10 -76 22 l-26 31 -42 -16
c-49 -20 -97 -22 -108 -4 -19 30 -67 57 -103 57 -21 0 -43 7 -50 14 -8 11 -18
12 -36 5 -39 -14 -140 -11 -182 6 -60 26 -127 21 -217 -15 -98 -40 -187 -49
-247 -27 -24 9 -72 21 -108 27 -106 18 -102 15 -94 68 7 49 41 122 57 122 5 0
16 -9 26 -21 13 -16 62 -30 256 -69 132 -26 243 -46 247 -44 5 3 8 11 8 19 0
22 -45 36 -270 84 l-175 37 78 13 c42 7 77 17 77 22 0 5 -61 9 -140 9 -87 0
-140 4 -140 10 0 6 52 10 133 11 204 2 215 9 67 43 -162 36 -151 32 -146 58 3
13 10 57 17 98 6 41 13 78 16 83 9 15 222 7 335 -13z m-1177 -27 c-4 -16 -15
-68 -26 -117 -10 -49 -26 -100 -35 -113 -29 -45 -125 -87 -111 -49 17 45 27
100 21 119 -3 12 -22 38 -41 58 l-34 36 37 28 c57 44 105 64 153 65 42 0 43
-1 36 -27z m2363 -124 c-8 -5 -15 -2 -20 11 -5 13 -17 20 -33 20 -14 0 -25 5
-25 10 0 6 9 10 19 10 10 0 29 9 42 19 l24 19 3 -40 c2 -26 -2 -44 -10 -49z
m-2283 -193 c-19 -121 -36 -219 -37 -220 -2 -1 -24 21 -50 48 -33 34 -42 47
-27 43 15 -4 27 4 49 35 34 46 41 69 72 223 35 174 31 109 -7 -129z m-45 105
c-7 -42 -24 -89 -45 -126 -19 -33 -35 -55 -35 -50 0 15 37 149 63 225 26 78
35 54 17 -49z m2326 34 c14 -13 13 -18 -5 -43 -11 -16 -41 -48 -67 -72 -40
-37 -48 -40 -56 -27 -13 24 8 57 34 54 18 -2 25 6 36 37 12 38 29 66 39 66 2
0 11 -7 19 -15z m-156 -45 c0 -5 -7 -10 -15 -10 -8 0 -15 5 -15 10 0 6 7 10
15 10 8 0 15 -4 15 -10z m-2347 -152 c17 6 33 10 35 7 9 -8 -29 -140 -45 -157
-11 -12 -31 -18 -60 -18 -43 0 -44 1 -39 28 2 15 10 57 16 94 l12 67 25 -16
c21 -14 30 -15 56 -5z m784 -90 c-3 -8 -6 -5 -6 6 -1 11 2 17 5 13 3 -3 4 -12
1 -19z m-532 -68 c0 -22 -3 -40 -7 -40 -10 0 -11 64 -1 73 3 4 7 7 7 7 1 0 1
-18 1 -40z m105 -11 c0 -4 -9 -5 -20 -2 -12 3 -20 14 -20 26 0 19 1 20 20 2
11 -10 20 -21 20 -26z m103 -26 c-7 -2 -21 -2 -30 0 -10 3 -4 5 12 5 17 0 24
-2 18 -5z m-825 -303 c14 -22 3 -30 -66 -45 l-32 -7 21 -29 c11 -16 28 -29 38
-29 9 0 25 -6 35 -13 16 -12 13 -16 -28 -45 -29 -21 -46 -41 -46 -54 0 -14 5
-18 15 -14 19 7 19 2 0 -34 -19 -37 -33 -38 -41 -4 -6 23 -10 25 -40 19 -30
-5 -34 -3 -34 14 0 25 -29 101 -39 101 -4 0 -12 -5 -19 -12 -9 -9 -12 -8 -12
4 0 9 -3 23 -6 32 -4 11 -1 16 11 16 13 0 15 6 10 29 -7 31 -6 31 58 45 18 4
27 13 27 26 0 18 7 20 68 20 57 0 69 -3 80 -20z m739 -62 c11 -13 26 -33 32
-45 10 -20 20 -23 72 -23 55 0 59 -1 50 -19 -8 -15 -6 -20 15 -30 20 -9 30 -8
50 5 31 21 41 12 20 -18 -25 -35 -20 -41 29 -34 52 8 54 4 25 -60 -16 -34 -18
-49 -10 -64 13 -24 12 -24 51 -1 31 19 31 19 9 31 -22 12 -22 12 13 44 24 22
38 45 43 72 12 70 17 74 89 74 36 0 65 -3 65 -7 0 -5 -7 -17 -16 -28 -8 -11
-19 -37 -25 -59 -9 -35 -8 -42 8 -54 16 -13 13 -14 -31 -9 -63 6 -118 -17
-114 -48 4 -30 120 -58 213 -51 85 6 133 25 188 75 74 67 114 93 120 79 4 -9
15 -2 34 20 30 35 57 39 138 24 40 -7 40 -7 -20 -12 l-60 -5 63 -64 c51 -53
62 -70 62 -98 0 -38 1 -38 -100 -19 -74 15 -75 15 -98 -8 l-24 -23 44 -11 c23
-6 73 -14 110 -18 l66 -7 6 -86 c17 -242 42 -403 86 -545 15 -50 33 -130 40
-178 l13 -87 -61 -123 c-33 -68 -77 -142 -98 -166 -37 -44 -37 -44 -57 -24
-20 20 -20 20 -123 -107 -257 -318 -524 -593 -587 -605 -46 -9 -176 11 -268
40 l-76 24 -31 67 c-72 159 -66 310 19 443 l28 46 -34 104 c-31 98 -36 105
-63 111 -45 9 -98 46 -121 83 -36 58 -24 226 16 226 7 0 13 -11 14 -27 1 -55
22 -97 59 -115 34 -16 35 -16 62 9 36 34 55 25 63 -31 l7 -46 47 0 c51 0 82
16 195 102 54 42 63 54 111 160 29 63 65 152 80 197 25 74 30 82 49 77 11 -3
65 -13 119 -21 53 -8 118 -25 143 -37 52 -24 128 -94 168 -155 l28 -41 -12
-131 c-6 -72 -14 -139 -17 -148 -14 -37 15 -1 41 51 70 138 4 373 -120 426
-62 27 -269 97 -334 114 l-55 14 -60 -93 c-33 -52 -67 -107 -76 -122 -14 -26
-28 -32 -115 -53 -54 -13 -125 -24 -156 -25 -32 -1 -64 -7 -71 -14 -8 -6 -21
-9 -30 -6 -8 4 -30 -3 -48 -14 -47 -29 -106 -27 -143 3 l-30 23 59 67 c32 36
62 63 66 59 5 -5 9 -25 11 -46 2 -38 18 -53 18 -17 0 23 33 93 62 129 16 21
26 25 63 22 35 -2 91 15 113 34 2 2 -7 22 -20 44 -39 69 -89 52 -169 -55 -41
-56 -82 -84 -121 -84 -18 0 -39 -20 -81 -75 -69 -89 -102 -109 -168 -103 -28
3 -56 0 -70 -8 -32 -18 -84 -17 -119 1 -26 14 -30 21 -30 60 0 41 -2 45 -35
56 -37 14 -41 23 -25 63 9 23 14 25 85 28 l77 3 48 110 c26 61 58 142 70 181
23 71 24 72 75 93 48 20 115 69 115 84 0 11 -60 8 -82 -4 -16 -8 -19 -8 -16 2
2 6 22 17 45 24 59 18 65 23 53 46 -7 12 -7 19 -1 19 16 0 38 50 44 98 5 44
30 82 53 82 7 0 22 14 34 30 l21 30 -33 0 c-30 0 -34 3 -33 28 1 23 10 32 66
59 78 38 80 39 106 11z m-437 -14 c0 -11 -45 -42 -53 -37 -11 7 22 43 40 43 7
0 13 -3 13 -6z m1565 -64 c8 -13 -5 -13 -25 0 -13 8 -13 10 2 10 9 0 20 -4 23
-10z m-1492 -20 c-6 -24 15 -80 31 -81 6 -1 23 0 39 1 38 2 34 -18 -9 -36 -24
-10 -50 -13 -80 -8 -41 6 -43 8 -37 33 11 44 42 111 52 111 5 0 7 -9 4 -20z
m1095 0 c42 -26 43 -62 2 -100 -57 -53 -138 -48 -159 11 -16 46 -14 57 14 84
31 32 95 34 143 5z m927 -95 c26 -60 80 -175 121 -254 41 -79 72 -146 71 -148
-6 -6 -205 350 -221 393 -14 41 -32 133 -23 124 2 -3 26 -54 52 -115z m-2158
39 c13 -21 23 -47 23 -57 0 -17 -2 -17 -26 2 -15 12 -35 21 -46 21 -17 0 -19
5 -13 33 14 61 28 61 62 1z m-131 -50 c-18 -13 -20 -23 -6 -44 8 -12 12 -11
32 8 l24 22 74 -31 c41 -16 94 -33 118 -36 67 -9 27 -24 -68 -26 -77 -2 -79
-3 -66 -22 7 -11 29 -22 47 -25 34 -6 33 -6 -14 -14 -39 -6 -50 -13 -63 -37
l-15 -30 38 6 c21 3 48 8 61 11 13 2 22 0 22 -7 0 -7 -22 -60 -49 -118 -27
-59 -57 -132 -67 -164 -10 -31 -20 -57 -23 -57 -10 0 -52 71 -67 112 -23 66
-18 166 12 234 14 32 26 76 27 99 2 37 0 40 -27 43 -28 4 -28 4 -24 57 3 29
13 66 24 82 l19 28 3 -40 c2 -27 -1 -43 -12 -51z m2413 -45 c37 -69 71 -170
71 -209 0 -8 -36 64 -80 160 -44 96 -80 177 -80 180 0 15 55 -65 89 -131z
m-2779 112 c0 -5 -7 -14 -15 -21 -16 -14 -18 -10 -9 14 6 17 24 22 24 7z
m2537 -198 c184 -276 214 -351 227 -563 8 -125 14 -162 27 -154 5 3 10 29 10
57 l1 52 8 -55 c14 -92 23 -307 14 -321 -12 -20 -22 22 -23 96 -1 33 -6 67
-11 75 -5 8 -10 11 -10 5 -1 -51 -25 -196 -36 -217 -15 -28 -61 -65 -70 -56
-2 3 1 18 7 34 44 112 58 270 34 380 -35 159 -157 498 -280 774 -24 55 -42
100 -40 100 2 0 66 -93 142 -207z m-437 141 c0 -2 -7 -4 -15 -4 -8 0 -15 4
-15 10 0 5 7 7 15 4 8 -4 15 -8 15 -10z m320 -133 c-1 -20 -40 46 -40 68 0 22
3 20 20 -18 11 -24 20 -46 20 -50z m-2225 -17 c-32 -71 -113 -190 -122 -181
-2 2 32 66 74 141 84 146 106 165 48 40z m2670 56 c9 -16 13 -30 11 -30 -3 0
-12 14 -21 30 -9 17 -13 30 -11 30 3 0 12 -13 21 -30z m-3471 -33 c4 -19 3
-26 -4 -22 -5 3 -10 18 -10 32 0 32 5 28 14 -10z m3771 -117 c48 -106 75 -183
75 -210 0 -8 -11 15 -23 51 -12 37 -35 82 -50 102 -14 19 -31 55 -36 80 -6 24
-15 57 -21 73 -25 64 11 3 55 -96z m-4055 80 c0 -15 -5 -12 -26 11 -19 22 -19
22 4 10 12 -6 22 -16 22 -21z m3105 -280 c8 -47 20 -123 25 -170 5 -47 12
-110 16 -140 9 -75 -1 -60 -14 20 -6 36 -27 159 -47 275 -34 197 -36 214 -23
270 l13 60 7 -115 c4 -63 14 -153 23 -200z m759 243 c69 -185 100 -381 118
-751 3 -50 2 -52 -24 -52 -14 0 -33 -2 -40 -5 -12 -5 -18 32 -32 202 -10 114
-26 303 -37 418 -20 218 -22 255 -15 255 2 0 16 -30 30 -67z m-2758 -42 c-15
-28 -28 -51 -31 -51 -3 0 7 25 22 55 15 30 29 53 31 51 2 -2 -8 -27 -22 -55z
m2153 -220 c28 -68 50 -125 48 -127 -1 -1 -28 36 -60 82 -53 79 -57 89 -57
142 1 68 2 67 69 -97z m115 44 l7 -30 -24 35 c-13 19 -32 49 -42 65 -18 30
-18 29 17 -5 20 -19 39 -48 42 -65z m109 -68 c20 -43 32 -75 26 -72 -18 12
-69 110 -69 134 0 32 1 30 43 -62z m-278 -67 c54 -107 80 -239 64 -325 -5 -27
-14 -86 -21 -130 l-11 -80 -29 170 c-29 173 -63 388 -74 460 l-6 40 27 -45
c15 -25 37 -65 50 -90z m814 41 c26 -97 40 -204 32 -245 -5 -22 -13 10 -30
119 -13 83 -25 162 -28 178 -11 57 6 24 26 -52z m236 -51 c16 -101 21 -330 6
-330 -4 0 -11 82 -15 183 -3 100 -9 198 -12 217 -4 19 -4 33 -1 30 4 -3 13
-48 22 -100z m-3147 14 c-13 -25 -24 -41 -26 -35 -5 14 28 81 39 81 5 0 -1
-21 -13 -46z m2255 -54 c49 -162 70 -356 56 -517 -5 -60 -12 -119 -15 -133 -7
-24 -30 206 -54 530 -6 85 -14 164 -17 175 -3 13 -2 16 4 10 6 -5 17 -35 26
-65z m-2248 -75 c-31 -87 -35 -94 -32 -54 4 43 58 182 64 163 2 -5 -13 -54
-32 -109z m3194 72 c1 -5 -3 -5 -9 -2 -5 3 -10 16 -9 28 0 21 1 21 9 2 5 -11
9 -24 9 -28z m711 -21 c0 -3 -4 -8 -10 -11 -5 -3 -10 -1 -10 4 0 6 5 11 10 11
6 0 10 -2 10 -4z m-1513 -63 c14 -46 18 -89 16 -208 -3 -238 -17 -231 -32 16
-7 118 -14 222 -16 232 -2 9 1 17 6 17 4 0 16 -26 26 -57z m1513 -17 c0 -3 -4
-8 -10 -11 -5 -3 -10 -1 -10 4 0 6 5 11 10 11 6 0 10 -2 10 -4z m19 -108 c32
-29 74 -62 92 -73 62 -37 95 -109 124 -275 13 -73 13 -79 -21 -235 -19 -88
-42 -177 -51 -198 -19 -43 -72 -94 -107 -103 -18 -4 -36 -31 -79 -122 -31 -64
-64 -143 -75 -176 -17 -49 -27 -63 -66 -88 -41 -27 -51 -29 -96 -23 -41 6 -50
10 -46 23 2 10 7 43 11 74 10 92 63 282 83 296 39 28 72 64 66 73 -3 5 -32 9
-65 9 l-59 0 0 -49 c0 -42 -6 -56 -35 -93 -72 -89 -93 -127 -100 -186 -10 -80
-18 -93 -58 -86 -48 9 -130 33 -146 43 -31 20 1 173 74 361 42 108 63 206 48
221 -15 15 -58 -14 -94 -65 -33 -44 -39 -100 -13 -114 15 -8 14 -16 -11 -83
-48 -128 -127 -288 -144 -293 -9 -3 -41 -10 -73 -17 l-56 -12 -46 38 c-35 28
-46 44 -46 65 0 39 33 142 84 262 52 122 70 202 62 272 -6 49 -5 53 34 100 22
26 40 57 40 69 0 11 -2 18 -4 16 -2 -2 -37 -48 -79 -102 -67 -87 -75 -102 -66
-124 23 -61 13 -84 -68 -164 -43 -41 -90 -80 -104 -86 -19 -8 -31 -27 -49 -75
-12 -34 -26 -68 -31 -74 -5 -6 -13 -55 -19 -110 -19 -183 -75 -334 -157 -423
l-42 -46 -1 47 c0 26 -7 67 -15 91 -13 39 -13 53 0 128 9 49 15 146 15 233 l0
149 125 128 c155 157 181 205 172 310 -6 67 -5 69 26 95 36 31 147 84 175 84
22 0 87 64 78 78 -3 6 8 15 25 21 17 6 52 26 77 44 180 131 402 214 580 216
l72 1 59 -52z m261 -83 c17 -30 50 -79 73 -108 29 -36 82 -145 178 -362 75
-170 170 -382 211 -470 41 -88 96 -208 122 -266 43 -96 49 -106 74 -106 15 0
48 -14 73 -31 26 -18 51 -32 55 -32 15 0 55 -66 80 -132 13 -35 38 -90 54
-123 16 -33 31 -65 32 -71 2 -6 54 -65 117 -130 119 -124 125 -128 54 -29 -53
72 -98 166 -107 220 -15 91 -18 97 -48 109 l-30 13 30 22 31 22 -30 44 c-25
37 -36 45 -62 46 -24 1 -26 3 -10 6 22 4 22 5 -7 29 -17 15 -32 39 -36 60 -7
38 -29 45 -39 13 -6 -16 -9 -18 -15 -8 -5 7 -4 21 1 30 5 10 9 26 9 36 0 25
-57 93 -79 93 -9 0 -25 13 -34 30 -22 37 -52 54 -82 46 -50 -13 -82 19 -100
97 -3 16 -30 65 -61 110 -49 75 -53 83 -37 95 22 16 38 15 57 -3 8 -8 17 -15
20 -15 2 0 8 25 11 55 8 59 -11 131 -41 155 -7 7 -14 24 -14 38 0 14 -20 55
-44 91 -44 68 -176 289 -176 297 0 2 13 4 29 4 27 0 38 -13 139 -172 147 -233
252 -415 323 -561 44 -92 75 -141 125 -197 263 -296 427 -520 469 -641 8 -22
33 -149 56 -280 l41 -240 -68 -102 c-37 -56 -88 -141 -113 -190 l-45 -89 35
-26 c84 -63 175 -179 156 -198 -10 -10 -48 7 -82 38 l-35 30 -11 -25 c-9 -19
-8 -31 5 -56 9 -17 14 -31 11 -31 -3 0 -27 16 -54 35 -26 19 -52 35 -57 35 -5
0 -30 -21 -56 -47 -26 -26 -49 -45 -51 -42 -1 2 -13 36 -25 74 -20 65 -27 74
-89 125 -123 101 -126 105 -119 153 22 137 -10 360 -81 567 -38 112 -150 341
-226 461 -37 59 -67 111 -67 117 0 6 -12 17 -27 24 -57 27 -184 320 -252 578
-10 41 -33 143 -51 225 -53 252 -113 447 -171 552 -16 29 -29 55 -29 58 0 3
13 5 29 5 25 0 34 -8 61 -55z m-3267 -85 c-13 -32 -19 -38 -33 -30 -19 10 -45
39 -39 43 14 10 57 26 71 26 15 1 15 -2 1 -39z m1301 -419 c-15 -15 -16 -5
-10 129 3 80 7 174 7 210 1 36 6 -22 11 -129 8 -175 7 -196 -8 -210z m-1935
370 c11 -7 12 -24 5 -87 -6 -58 -9 -69 -12 -41 -2 20 -7 37 -11 37 -14 0 -29
-23 -33 -50 -2 -17 -8 -6 -17 38 -14 61 -13 63 9 87 25 27 37 30 59 16z m2786
-16 c-16 -8 -37 -14 -45 -14 -8 0 1 7 20 14 46 18 64 17 25 0z m-2708 -155
c-5 -65 -36 -204 -44 -197 -3 3 20 274 28 335 1 4 5 -11 11 -33 5 -22 7 -69 5
-105z m2507 78 c-37 -41 -52 -74 -77 -160 -40 -136 -58 -161 -172 -233 -74
-47 -143 -63 -307 -72 -142 -7 -155 -1 -84 41 106 62 205 146 265 224 81 107
124 142 176 143 24 0 74 16 125 39 102 46 98 46 74 18z m-809 -235 c-3 -80 -6
-88 -24 -91 -25 -4 -25 4 -7 71 8 29 17 64 20 80 11 47 14 30 11 -60z m-1670
-37 c-10 -39 -22 -78 -27 -86 -7 -11 -8 -8 -3 10 3 14 13 61 23 104 9 44 19
71 21 61 1 -10 -5 -50 -14 -89z m17 -201 l-29 -210 -12 75 c-7 41 -14 81 -17
88 -2 7 15 76 39 152 23 76 43 131 45 122 1 -9 -11 -111 -26 -227z m1556 188
c-18 -41 -58 -105 -82 -131 l-21 -24 29 8 c26 6 27 5 17 -14 -6 -12 -21 -28
-33 -36 -27 -19 -79 -21 -75 -3 1 8 -9 11 -31 9 -31 -2 -30 0 45 67 43 38 96
87 118 110 21 23 40 41 42 41 1 0 -3 -12 -9 -27z m202 -87 c-63 -18 -126 -36
-140 -40 -45 -12 53 37 110 55 30 10 75 18 100 18 39 0 30 -4 -70 -33z m-1605
-206 c-32 -164 -82 -346 -92 -336 -2 2 10 62 27 132 26 108 63 264 86 363 3
13 7 21 9 19 2 -2 -11 -82 -30 -178z m-106 -4 c-11 -20 -22 -36 -24 -36 -1 0
7 39 19 88 l21 87 3 -51 c2 -38 -2 -60 -19 -88z m1678 27 c-3 -10 -5 -4 -5 12
0 17 2 24 5 18 2 -7 2 -21 0 -30z m-77 -48 c0 -47 -7 -80 -24 -120 -14 -30
-21 -55 -16 -55 28 0 62 27 67 52 l6 29 23 -22 c21 -20 24 -32 24 -93 0 -60
-3 -73 -20 -84 -18 -11 -20 -23 -21 -130 -1 -106 -2 -114 -14 -87 -13 30 -55
168 -76 255 -11 44 -11 44 -25 20 -19 -35 -18 -125 2 -155 8 -13 14 -33 12
-45 -2 -16 -13 -4 -46 50 l-42 72 35 111 c39 126 96 267 108 267 4 0 7 -29 7
-65z m-225 41 c18 -13 17 -15 -20 -25 -51 -14 -208 -25 -180 -12 30 13 148 49
166 50 8 1 24 -5 34 -13z m116 -84 c-64 -128 -91 -212 -91 -284 0 -51 4 -63
35 -104 64 -83 58 -90 -11 -15 -38 41 -67 82 -66 90 3 12 99 338 118 399 2 6
17 12 34 12 l30 0 -49 -98z m466 -132 c37 -95 63 -206 44 -184 -28 32 -122
334 -120 388 1 23 5 14 18 -34 9 -36 35 -112 58 -170z m-116 94 c29 -105 21
-110 -12 -9 -33 103 -33 103 -18 88 6 -6 20 -42 30 -79z m-128 -14 c3 -43 2
-69 -3 -60 -7 13 -15 107 -11 134 3 24 9 -6 14 -74z m123 -284 c19 -76 33
-140 31 -143 -6 -5 -72 186 -91 262 -9 34 -18 94 -21 135 l-6 75 26 -95 c14
-52 42 -157 61 -234z m-699 248 c-3 -3 -22 -10 -42 -14 -21 -5 -34 -5 -29 0
14 13 84 27 71 14z m62 -39 c-29 -16 -155 -58 -204 -69 l-30 -6 27 15 c33 18
198 75 218 74 8 0 3 -6 -11 -14z m-3035 -53 c-129 -119 -234 -164 -404 -170
-72 -2 -111 0 -105 5 6 6 63 25 128 43 109 31 145 50 97 50 -34 0 -22 15 24
29 24 7 75 28 112 46 l69 34 -45 -40 c-52 -46 -43 -44 90 19 47 22 87 41 90
41 3 0 -23 -26 -56 -57z m236 24 c0 -9 -124 -93 -170 -116 -56 -28 -55 -26 55
54 78 58 115 77 115 62z m170 -32 c0 -10 -155 -177 -256 -276 -137 -134 -193
-172 -417 -285 l-209 -104 39 55 c38 55 40 56 270 167 l232 113 158 168 c138
146 183 186 183 162z m2580 1 c0 -6 -253 -85 -258 -81 -5 6 136 58 193 72 59
15 65 15 65 9z m1340 -165 c31 -91 77 -212 103 -269 72 -159 226 -438 268
-488 22 -24 39 -52 39 -61 1 -9 16 -56 34 -104 18 -49 32 -88 30 -88 -2 0 -13
19 -25 43 -46 92 -198 334 -267 425 l-72 97 -100 301 c-55 165 -100 304 -100
308 0 4 8 6 17 4 13 -2 33 -48 73 -168z m-1205 130 c3 -5 3 -21 -1 -35 -6 -23
-11 -25 -61 -25 l-55 0 29 23 c51 43 77 54 88 37z m1124 -136 c48 -167 129
-407 164 -486 36 -82 110 -192 171 -257 43 -46 136 -191 122 -191 -15 0 -349
468 -386 540 -23 45 -127 353 -136 402 -5 33 12 145 22 135 2 -2 22 -66 43
-143z m-3821 64 c-62 -88 -291 -296 -512 -465 -88 -68 -105 -77 -167 -89 -37
-7 -96 -24 -131 -38 -34 -14 -63 -24 -65 -22 -7 6 253 170 377 237 117 63 150
87 245 177 95 90 262 232 273 232 2 0 -7 -15 -20 -32z m2521 28 c-2 -2 -20 -6
-39 -10 -25 -4 -31 -3 -20 4 14 9 69 15 59 6z m-2719 -20 c0 -3 -21 -31 -47
-63 -100 -123 -174 -173 -415 -279 -232 -102 -221 -98 -208 -73 6 11 52 38
103 61 232 105 432 226 517 312 45 46 50 50 50 42z m420 -39 c0 -7 -28 -41
-61 -77 l-60 -65 27 50 c39 71 74 116 85 110 5 -4 9 -12 9 -18z m3054 -377
c38 -150 61 -269 54 -275 -8 -9 -90 80 -110 118 -30 60 -45 166 -52 367 l-6
185 40 -130 c23 -71 56 -191 74 -265z m747 320 c5 -8 33 -99 64 -203 40 -135
69 -213 106 -282 28 -52 48 -95 45 -95 -2 0 -39 61 -82 135 -51 91 -96 188
-134 293 -32 86 -61 165 -65 175 -7 17 -5 17 25 5 18 -8 37 -20 41 -28z
m-4431 -1 c-74 -65 -151 -110 -192 -114 -36 -4 -39 -3 -27 12 16 19 98 73 112
73 4 0 5 -10 1 -22 -6 -19 1 -16 47 17 30 21 61 44 69 52 8 7 17 13 20 13 3
-1 -11 -15 -30 -31z m3770 -128 c0 -8 -3 -12 -6 -8 -8 8 -33 126 -33 152 1 21
39 -120 39 -144z m-3037 134 c-3 -9 -8 -14 -10 -11 -3 3 -2 9 2 15 9 16 15 13
8 -4z m1472 -9 c68 -46 190 -47 368 -1 91 23 114 25 340 25 l242 0 20 -37 c28
-53 102 -131 145 -153 20 -10 52 -21 73 -25 28 -6 45 -18 75 -59 52 -68 80
-124 95 -189 10 -46 27 -70 127 -184 110 -124 123 -136 295 -251 269 -180 480
-301 496 -285 4 4 -72 81 -170 170 -229 208 -285 291 -297 442 l-5 66 31 -53
c18 -29 35 -51 37 -48 3 3 -4 21 -15 40 -19 32 -59 242 -49 253 4 3 78 -157
113 -245 9 -24 18 -41 20 -40 3 4 -38 151 -55 193 -7 16 -20 59 -31 96 l-18
67 34 33 33 32 9 -24 c5 -13 38 -103 72 -199 35 -96 80 -209 100 -250 42 -84
121 -195 146 -204 9 -4 15 -9 12 -11 -8 -8 -100 41 -155 82 -58 43 -104 97
-123 143 -7 17 -15 29 -17 26 -2 -2 3 -21 12 -42 26 -61 53 -144 46 -143 -10
1 -104 116 -121 150 -11 20 -20 28 -24 21 -8 -13 29 -91 73 -155 35 -51 185
-197 263 -255 31 -24 93 -90 138 -148 45 -58 84 -103 87 -101 2 3 -7 32 -21
66 -14 33 -26 74 -26 91 0 25 4 30 23 30 29 0 129 -29 141 -41 18 -17 27 -9
15 12 -7 14 -7 25 -1 31 6 6 48 -39 117 -129 126 -162 123 -158 130 -151 3 3
-15 32 -40 66 -25 33 -52 76 -60 96 -17 40 -20 102 -5 111 5 3 96 -52 202
-123 165 -110 294 -189 431 -265 43 -23 81 -19 85 10 3 17 -3 26 -22 33 -42
15 -105 87 -193 217 -46 67 -83 124 -83 128 0 3 62 -50 138 -118 l137 -123
159 -64 c90 -36 173 -76 191 -92 40 -34 45 -35 45 -3 0 14 3 25 6 25 3 0 69
-40 147 -89 78 -48 151 -93 163 -99 12 -6 113 -172 237 -389 l216 -378 119
-400 119 -400 27 -240 c15 -132 41 -352 57 -488 16 -136 29 -296 29 -355 0
-350 -124 -843 -360 -1437 -132 -330 -184 -438 -271 -562 -434 -619 -866
-1071 -1231 -1288 -45 -27 -148 -89 -228 -138 -314 -191 -629 -329 -918 -402
-230 -57 -725 -136 -979 -155 -211 -16 -493 0 -908 51 -185 23 -148 13 -825
225 l-375 117 -185 120 c-476 307 -850 586 -1016 758 -102 105 -469 595 -606
809 -97 151 -310 697 -419 1074 -110 382 -141 593 -142 1001 -2 290 4 353 63
660 16 83 40 224 55 315 25 160 29 172 122 400 156 383 249 593 360 813 101
200 109 212 202 312 53 57 114 134 136 170 70 121 486 498 800 726 278 202
542 373 691 447 158 78 152 76 614 202 151 41 393 92 462 99 9 0 33 -10 53
-23z m2325 -33 c13 -32 59 -133 102 -225 96 -206 124 -289 138 -414 10 -89 8
-128 -4 -93 -3 8 -70 188 -149 402 -117 313 -141 387 -128 387 12 0 25 -20 41
-57z m55 10 c16 -46 61 -139 112 -233 l25 -45 -26 30 c-50 57 -160 295 -137
295 5 0 16 -21 26 -47z m-1055 -25 c0 -35 3 -81 5 -103 4 -28 3 -34 -3 -20
-12 27 -21 185 -10 185 4 0 8 -28 8 -62z m-2685 13 c6 -11 -131 -174 -264
-313 -96 -101 -75 -88 -681 -419 l-135 -74 -77 -110 c-99 -141 -164 -214 -219
-244 -51 -29 -54 -33 59 102 109 129 230 254 279 288 23 16 128 75 234 130
287 150 314 170 563 425 121 123 223 224 227 224 4 0 10 -4 14 -9z m4043 -236
c78 -117 160 -251 182 -297 38 -79 69 -192 70 -250 0 -15 9 -51 20 -80 11 -28
18 -53 16 -55 -6 -6 -142 250 -168 317 -14 36 -31 98 -38 139 -11 64 -22 89
-82 185 -81 129 -150 227 -172 245 -24 20 -19 32 7 20 14 -6 82 -99 165 -224z
m-4428 218 c0 -20 -49 -85 -88 -119 -23 -20 -51 -53 -61 -73 -17 -32 -42 -48
-240 -149 -122 -63 -221 -111 -221 -109 0 3 27 22 60 42 83 51 315 225 435
328 97 83 115 96 115 80z m4538 -23 c-11 -18 -28 -27 -28 -16 0 2 -3 11 -6 20
-5 12 0 16 20 16 24 0 25 -2 14 -20z m-189 -216 l141 -210 -1 -70 0 -69 -13
40 c-10 33 -161 316 -266 500 -44 76 -2 19 139 -191z m-4147 149 c-76 -88
-289 -293 -357 -344 -86 -64 -98 -71 -220 -119 -208 -81 -341 -157 -442 -253
-29 -28 -53 -48 -53 -45 0 2 11 31 24 63 36 90 67 121 162 165 86 40 105 54
57 45 -16 -3 -21 -2 -13 1 8 4 55 27 105 51 74 37 86 40 67 20 -44 -46 -8 -35
107 35 230 141 517 344 580 412 45 48 33 26 -17 -31z m-67 19 c-6 -4 -22 -18
-37 -31 -16 -14 -28 -19 -28 -13 0 18 38 52 57 52 9 0 13 -3 8 -8z m3595 -36
c0 -6 3 -22 6 -36 4 -20 1 -18 -15 10 -24 42 -26 51 -6 44 8 -4 15 -11 15 -18z
m-335 -81 c0 -52 -3 -95 -7 -95 -10 0 -11 174 -1 183 3 4 7 7 7 7 1 0 1 -43 1
-95z m1235 -1 c0 -27 -14 -25 -30 7 -9 16 -7 19 10 19 15 0 20 -7 20 -26z
m-4676 -6 c-13 -24 -37 -48 -47 -48 -6 0 2 14 18 30 31 32 41 38 29 18z m-301
-28 c-9 -16 -24 -30 -32 -30 -10 0 -5 10 14 30 16 17 30 30 32 30 2 0 -4 -13
-14 -30z m5260 -87 c-7 -2 -19 -2 -25 0 -7 3 -2 5 12 5 14 0 19 -2 13 -5z
m-5477 -80 c-11 -11 -17 4 -9 23 7 18 8 18 11 1 2 -10 1 -21 -2 -24z m4969
-164 c13 -37 32 -107 41 -156 28 -151 75 -244 177 -352 l42 -43 -60 33 c-87
48 -121 75 -155 127 -41 62 -56 118 -80 302 -11 85 -27 181 -35 213 -8 32 -15
62 -15 65 1 12 59 -118 85 -189z m605 163 c0 -10 -36 -9 -46 1 -4 4 5 7 19 7
15 0 27 -4 27 -8z m88 -42 c7 -11 21 -20 33 -20 34 0 56 -18 63 -52 3 -17 15
-41 25 -53 11 -11 26 -42 36 -70 9 -27 37 -78 62 -113 25 -35 43 -66 40 -68
-7 -7 -97 109 -160 208 -53 82 -121 148 -154 148 -16 0 -17 12 -1 28 18 18 42
15 56 -8z m-1200 -87 c99 -161 183 -274 261 -350 40 -40 69 -73 64 -73 -11 0
-241 233 -276 281 -24 31 -121 239 -112 239 2 0 30 -44 63 -97z m891 -105 c43
-86 89 -191 102 -233 l24 -77 176 -162 c97 -88 175 -162 173 -164 -3 -5 -158
83 -232 131 -61 40 -66 47 -122 157 -78 155 -161 346 -199 455 -41 119 -19 88
78 -107z m89 30 c49 -73 112 -174 139 -225 45 -84 59 -100 160 -187 61 -52
114 -100 118 -106 11 -18 -93 38 -161 85 -33 24 -77 64 -99 90 -36 44 -84 143
-85 174 0 8 -22 48 -48 90 -59 92 -126 211 -119 211 3 0 46 -60 95 -132z
m-5591 52 c-31 -10 -69 -26 -83 -35 -14 -9 -28 -15 -30 -12 -5 4 33 32 76 54
14 7 41 13 60 12 32 0 30 -2 -23 -19z m-222 -13 c-51 -34 -117 -68 -110 -57
11 17 96 70 114 70 12 0 10 -3 -4 -13z m780 -2 c-16 -8 -37 -14 -45 -14 -8 0
-1 7 15 14 17 8 37 14 45 14 8 0 2 -7 -15 -14z m5242 -95 c61 -93 126 -210
120 -216 -6 -7 -119 171 -158 248 -38 76 -28 68 38 -32z m-356 -31 c17 -56 43
-136 59 -178 33 -84 32 -111 -1 -35 -52 119 -99 272 -99 321 0 22 15 -19 41
-108z m450 -199 c94 -140 76 -130 -42 25 -64 85 -149 226 -149 248 0 11 53
-65 191 -273z m-661 241 c0 -12 208 -381 237 -419 l25 -33 -39 16 c-61 26
-116 61 -151 98 -36 38 -67 132 -77 242 -4 33 -8 70 -11 83 -2 12 0 22 6 22 5
0 10 -4 10 -9z m-5363 -43 c-14 -18 -46 -71 -72 -118 -49 -91 -53 -75 -5 25
29 61 88 140 97 131 3 -3 -6 -20 -20 -38z m4248 32 c3 -5 2 -10 -4 -10 -5 0
-13 5 -16 10 -3 6 -2 10 4 10 5 0 13 -4 16 -10z m1780 -18 c11 -14 38 -61 60
-103 22 -43 75 -124 119 -181 71 -93 143 -214 134 -224 -4 -3 -196 263 -278
385 -60 90 -91 199 -35 123z m-5746 -114 c-13 -18 -51 -63 -86 -102 -34 -38
-68 -85 -74 -105 -12 -35 -89 -135 -97 -126 -7 7 98 186 144 246 64 84 167
163 113 87z m5556 -156 c8 -18 10 -30 5 -27 -15 9 -68 108 -75 140 -5 23 1 17
25 -25 17 -30 38 -70 45 -88z m-1025 30 c45 -39 108 -127 99 -137 -3 -2 -51
46 -109 108 -105 111 -99 125 10 29z m1590 -50 c0 -15 -2 -15 -10 -2 -13 20
-13 33 0 25 6 -3 10 -14 10 -23z m-48 -87 c172 -234 380 -543 356 -529 -14 8
-127 92 -143 106 -6 6 -5 12 5 18 12 8 12 13 -6 37 -12 15 -38 38 -60 50 -31
18 -45 37 -77 105 -58 124 -128 283 -123 277 2 -2 24 -31 48 -64z m-329 -64
c100 -68 172 -131 135 -118 -50 18 -269 185 -245 187 5 0 54 -31 110 -69z
m709 -263 c22 -38 39 -71 36 -73 -2 -2 -21 24 -41 58 -20 34 -46 78 -58 97
l-21 35 22 -25 c12 -13 40 -55 62 -92z m-86 -1 c21 -40 11 -44 -20 -7 -30 36
-37 72 -10 49 8 -7 22 -26 30 -42z m232 -152 c-3 -3 -9 2 -12 12 -6 14 -5 15
5 6 7 -7 10 -15 7 -18z m-78 -87 c0 -3 -9 -4 -20 -1 -20 5 -26 23 -13 36 6 6
32 -21 33 -35z m180 -152 c25 -56 49 -138 37 -126 -3 3 -32 39 -66 80 -53 65
-58 75 -41 78 12 2 20 11 20 23 0 33 20 11 50 -55z m114 -8 c8 -21 13 -38 10
-38 -4 0 -56 96 -62 115 -9 27 39 -45 52 -77z m16 -160 c19 -43 27 -118 12
-118 -4 0 -13 29 -20 64 -6 35 -14 71 -18 80 -13 35 8 13 26 -26z m119 -228
c12 -36 24 -83 27 -105 l6 -40 -37 59 c-40 65 -51 102 -41 142 9 36 20 23 45
-56z"/>
<path d="M3787 11604 c-8 -8 1 -24 14 -24 5 0 9 7 9 15 0 15 -12 20 -23 9z"/>
<path d="M4650 11490 c79 -23 80 -23 80 -6 0 8 -17 16 -46 20 -86 11 -101 5
-34 -14z"/>
<path d="M4976 11423 c21 -15 50 -17 58 -4 3 5 -12 11 -35 13 -35 3 -38 2 -23
-9z"/>
<path d="M5135 11390 c3 -5 11 -10 16 -10 6 0 7 5 4 10 -3 6 -11 10 -16 10 -6
0 -7 -4 -4 -10z"/>
<path d="M5240 11346 c0 -3 36 -26 81 -53 45 -26 99 -64 121 -82 31 -27 38
-30 29 -13 -22 42 -84 94 -145 123 -56 27 -86 35 -86 25z"/>
<path d="M2810 10688 c-22 -10 -23 -12 -6 -15 10 -3 26 2 34 11 19 18 8 20
-28 4z"/>
<path d="M3595 10719 c-10 -15 3 -25 16 -12 7 7 7 13 1 17 -6 3 -14 1 -17 -5z"/>
<path d="M3565 10650 c-4 -12 -5 -24 -2 -27 3 -2 8 5 12 17 4 12 5 24 2 27 -3
2 -8 -5 -12 -17z"/>
<path d="M3816 10620 c-14 -17 -26 -39 -26 -48 0 -9 13 2 31 26 37 51 33 67
-5 22z"/>
<path d="M3860 10595 c-11 -13 -10 -14 4 -9 9 3 16 10 16 15 0 13 -6 11 -20
-6z"/>
<path d="M3979 10431 c16 -28 78 -80 106 -87 27 -7 69 5 48 13 -35 13 0 26
142 56 11 3 -27 5 -85 6 -70 1 -113 6 -130 16 -14 8 -40 14 -58 15 -29 0 -32
-2 -23 -19z"/>
<path d="M4420 10435 c-14 -8 -20 -14 -14 -15 5 0 19 7 30 15 24 18 16 19 -16
0z"/>
<path d="M4574 10312 c-35 -61 0 -102 85 -102 36 0 39 2 44 37 8 46 4 50 -23
23 -12 -12 -28 -19 -36 -16 -12 5 -10 12 10 39 l26 34 -25 11 c-42 19 -59 14
-81 -26z"/>
<path d="M3787 10334 c-8 -8 1 -24 14 -24 5 0 9 7 9 15 0 15 -12 20 -23 9z"/>
<path d="M3901 10327 c-8 -10 -8 -29 -1 -67 17 -89 12 -122 -32 -203 -14 -27
-8 -28 47 -12 56 18 113 19 151 5 l27 -11 -17 26 c-9 13 -48 80 -86 146 -38
67 -71 124 -73 126 -2 2 -9 -3 -16 -10z"/>
<path d="M4408 9855 c7 -11 30 -40 53 -65 l41 -45 -30 45 c-16 25 -40 54 -52
65 l-23 20 11 -20z"/>
<path d="M3063 9805 c-8 -22 6 -33 17 -15 13 20 12 30 0 30 -6 0 -13 -7 -17
-15z"/>
<path d="M3650 9810 c0 -5 5 -10 10 -10 6 0 10 5 10 10 0 6 -4 10 -10 10 -5 0
-10 -4 -10 -10z"/>
<path d="M4036 9495 c4 -10 -2 -18 -17 -23 l-23 -9 24 -13 c20 -11 25 -10 37
6 35 47 36 54 4 54 -23 0 -29 -4 -25 -15z"/>
<path d="M3900 9385 c7 -8 21 -15 31 -15 11 0 19 7 19 15 0 10 -10 15 -31 15
-27 0 -30 -2 -19 -15z"/>
<path d="M3860 9362 c0 -10 22 -32 32 -32 15 0 8 15 -12 28 -11 7 -20 9 -20 4z"/>
<path d="M3779 9330 c25 -21 46 -26 55 -11 6 9 -37 31 -62 31 -14 -1 -13 -4 7
-20z"/>
<path d="M3710 8680 c0 -70 19 -90 88 -90 53 0 59 2 75 30 20 33 17 36 -16 18
-12 -7 -33 -11 -46 -9 -23 3 -70 44 -91 80 -7 12 -9 4 -10 -29z"/>
<path d="M4320 10682 c0 -10 9 -27 21 -38 17 -16 22 -16 30 -4 17 27 6 55 -23
58 -22 3 -28 -1 -28 -16z"/>
<path d="M6545 12471 c-3 -5 -1 -12 4 -15 5 -3 11 1 15 9 6 16 -9 21 -19 6z"/>
<path d="M6605 12250 c-3 -5 1 -10 9 -10 9 0 16 5 16 10 0 6 -4 10 -9 10 -6 0
-13 -4 -16 -10z"/>
<path d="M5605 12180 c-3 -5 1 -10 10 -10 9 0 13 5 10 10 -3 6 -8 10 -10 10
-2 0 -7 -4 -10 -10z"/>
<path d="M5671 12110 c3 -37 -1 -43 -29 -37 -26 5 -28 4 -24 -27 2 -21 -2 -37
-12 -45 -24 -20 -19 -32 10 -21 35 14 34 14 34 -24 0 -21 6 -36 15 -40 12 -4
15 3 15 34 l0 38 52 9 c48 7 52 10 61 43 5 19 13 41 19 47 11 14 7 16 -44 27
-22 5 -26 3 -22 -9 9 -22 -52 -20 -66 3 -8 13 -10 13 -9 2z"/>
<path d="M6465 12091 c-3 -5 -1 -12 5 -16 12 -7 30 2 30 16 0 12 -27 12 -35 0z"/>
<path d="M5730 11951 c0 -36 5 -39 19 -12 8 14 7 22 -4 31 -13 11 -15 8 -15
-19z"/>
<path d="M5230 11870 c-13 -8 -13 -10 2 -10 9 0 20 5 23 10 8 13 -5 13 -25 0z"/>
<path d="M5565 11850 c3 -5 8 -10 11 -10 2 0 4 5 4 10 0 6 -5 10 -11 10 -5 0
-7 -4 -4 -10z"/>
<path d="M5220 11800 c0 -5 9 -10 20 -10 11 0 20 5 20 10 0 6 -9 10 -20 10
-11 0 -20 -4 -20 -10z"/>
<path d="M4460 10966 c0 -2 7 -7 16 -10 8 -3 12 -2 9 4 -6 10 -25 14 -25 6z"/>
<path d="M3865 10920 c-3 -5 -1 -10 4 -10 6 0 11 5 11 10 0 6 -2 10 -4 10 -3
0 -8 -4 -11 -10z"/>
<path d="M1457 10833 c-4 -3 -7 -11 -7 -17 0 -6 5 -5 12 2 6 6 9 14 7 17 -3 3
-9 2 -12 -2z"/>
<path d="M1380 10575 c0 -62 9 -104 50 -238 60 -193 123 -424 118 -438 -7 -21
-194 119 -267 200 l-74 82 -13 -27 c-19 -35 -18 -36 14 -30 24 5 30 1 52 -35
28 -46 96 -101 180 -145 30 -16 78 -52 107 -81 49 -47 59 -53 142 -72 74 -17
103 -30 170 -75 131 -90 182 -95 234 -22 l21 29 -30 -7 c-16 -4 -38 -16 -49
-27 -21 -18 -22 -18 -165 64 -207 118 -250 148 -256 177 -14 62 -50 165 -99
280 -62 147 -90 234 -100 312 -8 60 5 84 25 47 19 -35 82 -99 113 -115 48 -25
40 -10 -18 31 -31 23 -70 64 -91 97 -54 84 -64 83 -64 -7z"/>
<path d="M820 10395 c0 -20 5 -25 24 -25 13 0 33 -3 43 -6 11 -4 6 6 -15 25
-39 38 -52 39 -52 6z"/>
<path d="M2362 10338 c-17 -17 -15 -28 7 -28 19 0 35 23 24 34 -9 9 -18 7 -31
-6z"/>
<path d="M915 10332 c-19 -19 16 -30 43 -13 10 6 7 10 -12 13 -14 3 -28 3 -31
0z"/>
<path d="M885 10259 c-4 -6 -13 -8 -20 -6 -9 4 -10 -2 -1 -26 13 -37 30 -66
185 -306 91 -140 108 -172 89 -167 -13 4 -53 11 -91 15 -66 9 -87 18 -117 55
-14 16 -17 16 -29 3 -10 -13 -8 -23 10 -59 12 -24 31 -56 44 -73 12 -16 32
-52 43 -78 42 -94 143 -203 294 -316 34 -26 129 -74 239 -121 199 -86 206 -96
66 -88 -73 4 -205 41 -301 83 -39 17 -5 -15 40 -38 l45 -23 -31 -42 c-33 -46
-27 -57 10 -17 26 28 48 32 56 11 5 -12 10 -12 39 0 44 18 93 18 138 -1 22 -9
68 -15 116 -15 80 0 81 0 87 28 4 15 15 44 26 65 14 29 16 38 6 42 -20 7 -444
163 -523 192 -70 26 -71 27 -225 205 -107 124 -156 188 -157 206 -1 15 0 21 3
14 10 -22 82 -52 127 -52 42 0 45 -2 82 -55 20 -30 40 -55 43 -55 3 0 13 7 23
16 17 15 22 15 61 -1 54 -21 155 -78 187 -106 21 -17 23 -23 13 -40 -7 -11 -8
-19 -2 -19 5 0 10 5 10 10 0 6 11 10 25 10 30 0 31 -6 8 -34 -18 -19 -18 -19
12 1 l30 20 114 -23 c62 -13 126 -27 141 -33 29 -10 40 -6 40 14 0 7 -38 17
-102 25 -116 14 -115 14 -218 101 -96 80 -204 160 -274 202 -36 22 -71 55
-102 98 -26 35 -80 100 -119 144 -49 54 -75 91 -79 115 -12 59 -37 130 -46
130 -5 0 -12 -5 -15 -11z"/>
<path d="M1140 10246 c0 -2 8 -10 18 -17 15 -13 16 -12 3 4 -13 16 -21 21 -21
13z"/>
<path d="M1553 9745 c-9 -25 4 -29 17 -6 7 15 7 21 0 21 -6 0 -13 -7 -17 -15z"/>
<path d="M2105 9164 c-91 -44 -83 -51 10 -9 44 20 99 55 85 54 -3 0 -45 -20
-95 -45z"/>
<path d="M2530 9200 c-10 -7 13 -10 73 -10 56 0 86 4 82 10 -8 13 -135 13
-155 0z"/>
<path d="M2198 9154 c-38 -20 -36 -28 2 -9 17 9 30 18 30 20 0 7 -1 6 -32 -11z"/>
<path d="M2733 9138 c1 -13 13 -31 27 -40 32 -22 37 -22 43 1 3 14 -6 24 -34
40 l-39 22 3 -23z"/>
<path d="M2896 9018 c10 -14 21 -24 23 -22 3 3 -6 15 -18 27 l-24 22 19 -27z"/>
<path d="M2722 8698 c-15 -19 3 -59 23 -52 9 4 14 13 11 21 -3 8 -6 21 -6 29
0 17 -14 18 -28 2z"/>
<path d="M749 8574 c12 -44 33 -73 48 -67 10 4 7 12 -10 33 -12 15 -27 36 -34
46 -10 16 -10 14 -4 -12z"/>
<path d="M2765 8529 c-11 -17 1 -21 15 -4 8 9 8 15 2 15 -6 0 -14 -5 -17 -11z"/>
<path d="M800 8487 c0 -4 12 -25 26 -46 28 -44 67 -64 110 -59 27 3 26 5 -26
32 -30 15 -67 40 -82 54 -16 14 -28 23 -28 19z"/>
</g>
</svg>
